:SAMPLES-PER-SECOND 30
:FULLY-SPECIFIED
:DEGREES
201
root  57.0465 19.769 4.02383 157.672 78.653 172.377
RightUpLeg  -72.6206 -1.83178 4.05345
RightLeg  110.023 16.4062 -11.6653
RightFoot  -24.4895 -0.195649 -2.04126
RightToes  2.85217e-009 -3.18055e-015 8.94531e-016
Spine  63.5891 -2.84591 -0.32498
Spine1  6.78713 -3.23337 2.96109
HEad  -32.5607 -0.889867 10.5753
LeftShoulder1  0 -2.69403e-036 -1.28585e-037
LeftArm  -10.0616 -57.9216 -63.513
LeftForeArm  -132.651 -51.6634 166.963
LeftHand  0.0837894 4.19642 16.431
RightShoulder  -2.48481e-017 0 -8.08114e-019
RightArm  -6.90532 40.7806 64.6922
RightForeArm  -85.9852 46.0911 -154.6
RightHand  4.01161 -16.3031 -26.1555
LeftUpLeg  -47.6058 -8.32746 22.7254
LeftLeg  127.624 13.7354 -32.9595
LeftFoot  20.2951 5.43289 -17.5392
LeftToes  -3.29237e-010 -4.9359e-011 -7.59376e-011
202
root  57.9435 19.9987 3.97178 145.906 79.022 161.341
RightUpLeg  -69.5028 -1.07109 2.31796
RightLeg  111.393 16.5856 -11.2879
RightFoot  -27.3014 -0.201664 -1.68868
RightToes  2.85217e-009 -3.18055e-015 8.94531e-016
Spine  63.2383 -2.67712 -0.359377
Spine1  7.42462 -3.03019 1.88652
HEad  -31.9314 -1.69375 9.89861
LeftShoulder1  0 -2.69403e-036 -1.28585e-037
LeftArm  -9.85913 -57.1936 -63.4211
LeftForeArm  -133.559 -51.6525 167.043
LeftHand  0.118004 4.30719 16.3509
RightShoulder  -2.48481e-017 0 -8.08114e-019
RightArm  -6.60025 41.0176 64.412
RightForeArm  -86.1351 46.1804 -154.491
RightHand  4.07217 -16.4794 -26.146
LeftUpLeg  -49.8006 -7.87816 21.631
LeftLeg  126.415 13.8411 -34.3162
LeftFoot  26.868 7.62473 -20.512
LeftToes  -3.29237e-010 -4.9359e-011 -7.59376e-011
203
root  58.8952 20.1256 3.9655 134.286 78.7598 150.985
RightUpLeg  -65.8333 -0.30768 0.716597
RightLeg  113.097 17.031 -11.279
RightFoot  -30.3939 -0.137461 -0.976045
RightToes  2.85217e-009 -3.18055e-015 8.94531e-016
Spine  62.961 -2.2934 -0.571335
Spine1  8.1411 -2.64938 0.482403
HEad  -30.79 -2.41175 9.09548
LeftShoulder1  0 -2.69403e-036 -1.28585e-037
LeftArm  -9.16338 -55.9395 -63.7286
LeftForeArm  -134.408 -51.4876 167.243
LeftHand  0.156857 4.46374 16.5617
RightShoulder  -2.48481e-017 0 -8.08114e-019
RightArm  -5.97416 41.1981 64.6614
RightForeArm  -86.3665 46.2525 -154.41
RightHand  4.08989 -16.5496 -26.0785
LeftUpLeg  -52.7356 -6.62907 19.4352
LeftLeg  126.884 13.3178 -33.3372
LeftFoot  22.2534 6.67584 -20.3004
LeftToes  -3.29237e-010 -4.9359e-011 -7.59376e-011
204
root  59.8916 20.0888 3.99839 126.309 78.1539 144.073
RightUpLeg  -62.7685 0.300428 -0.364827
RightLeg  115.347 17.6741 -11.3349
RightFoot  -32.7781 0.0656782 0.316167
RightToes  2.85217e-009 -3.18055e-015 8.94531e-016
Spine  62.4166 -1.98921 -0.709493
Spine1  8.46791 -2.25737 -1.2288
HEad  -29.343 -3.06183 8.49453
LeftShoulder1  0 -2.69403e-036 -1.28585e-037
LeftArm  -8.96484 -54.5254 -63.5829
LeftForeArm  -134.799 -51.2196 167.49
LeftHand  0.155173 4.4696 16.679
RightShoulder  -2.48481e-017 0 -8.08114e-019
RightArm  -5.12675 41.0333 65.5178
RightForeArm  -86.4587 46.2635 -154.401
RightHand  4.00584 -16.369 -25.8605
LeftUpLeg  -57.616 -4.30052 15.7668
LeftLeg  127.679 12.3454 -31.6118
LeftFoot  11.001 4.07538 -18.4597
LeftToes  -3.29237e-010 -4.9359e-011 -7.59376e-011
205
root  60.8596 19.9065 4.07686 122.068 76.8037 141.363
RightUpLeg  -59.6194 0.279322 -1.60682
RightLeg  118.244 18.184 -10.8507
RightFoot  -34.1929 0.411176 2.15211
RightToes  2.85217e-009 -3.18055e-015 8.94531e-016
Spine  62.5543 -1.77045 -1.15235
Spine1  8.5013 -2.21558 -2.61869
HEad  -28.1514 -3.68731 8.07474
LeftShoulder1  0 -2.69403e-036 -1.28585e-037
LeftArm  -9.74225 -53.5563 -62.6733
LeftForeArm  -134.538 -51.0693 167.589
LeftHand  0.106599 4.25802 16.2699
RightShoulder  -2.48481e-017 0 -8.08114e-019
RightArm  -4.36452 40.7287 66.4175
RightForeArm  -86.4189 46.2501 -154.416
RightHand  3.90448 -16.1146 -25.721
LeftUpLeg  -63.357 -2.2628 9.86141
LeftLeg  126.981 9.2288 -29.1388
LeftFoot  0.526892 2.00915 -16.3472
LeftToes  -3.29237e-010 -4.9359e-011 -7.59376e-011
206
root  61.7254 19.5821 4.17658 120.151 74.8744 141.614
RightUpLeg  -56.1518 -0.310974 -3.09523
RightLeg  121.576 18.6019 -10.0727
RightFoot  -35.0343 0.853486 4.35047
RightToes  2.85217e-009 -3.18055e-015 8.94531e-016
Spine  63.2679 -1.55963 -1.9586
Spine1  8.97055 -2.38045 -3.49718
HEad  -27.7021 -4.17094 7.79714
LeftShoulder1  0 -2.69403e-036 -1.28585e-037
LeftArm  -10.3648 -53.3821 -61.8211
LeftForeArm  -134.331 -51.0396 167.597
LeftHand  0.118236 4.25614 15.8551
RightShoulder  -2.48481e-017 0 -8.08114e-019
RightArm  -4.18744 40.6956 66.6265
RightForeArm  -86.5465 46.2759 -154.39
RightHand  3.90084 -16.065 -25.8623
LeftUpLeg  -68.5673 -1.38326 2.58085
LeftLeg  124.028 3.28317 -24.7305
LeftFoot  -5.93508 0.86423 -13.3937
LeftToes  -3.29237e-010 -4.9359e-011 -7.59376e-011
207
root  62.4895 19.0684 4.22194 119.732 73.2507 143.07
RightUpLeg  -53.5353 -1.15003 -4.04872
RightLeg  125.123 19.36 -9.69903
RightFoot  -35.5474 1.33414 6.6668
RightToes  2.85217e-009 -3.18055e-015 8.94531e-016
Spine  63.4936 -1.46146 -2.62432
Spine1  9.82046 -2.45796 -4.10768
HEad  -27.6192 -4.22114 7.62851
LeftShoulder1  0 -2.69403e-036 -1.28585e-037
LeftArm  -10.4527 -53.528 -61.4023
LeftForeArm  -134.229 -51.0229 167.602
LeftHand  0.132146 4.31869 15.9779
RightShoulder  -2.48481e-017 0 -8.08114e-019
RightArm  -4.20998 40.8543 66.5246
RightForeArm  -86.8545 46.3357 -154.33
RightHand  3.96561 -16.1959 -26.0655
LeftUpLeg  -73.0588 -1.26708 -4.15484
LeftLeg  119.183 -3.31803 -18.5475
LeftFoot  -9.84648 0.295206 -10.4944
LeftToes  -3.29237e-010 -4.9359e-011 -7.59376e-011
208
root  63.1831 18.3903 4.16952 118.932 72.1443 143.66
RightUpLeg  -52.0335 -2.21393 -4.60352
RightLeg  128.794 20.5711 -9.74422
RightFoot  -35.8536 1.77395 8.75334
RightToes  2.85217e-009 -3.18055e-015 8.94531e-016
Spine  63.5016 -1.44118 -3.15109
Spine1  10.2879 -2.53235 -4.5673
HEad  -27.3172 -3.80735 7.56053
LeftShoulder1  0 -2.69403e-036 -1.28585e-037
LeftArm  -10.3258 -53.4393 -61.2988
LeftForeArm  -134.258 -50.941 167.67
LeftHand  0.141689 4.37734 16.2301
RightShoulder  -2.48481e-017 0 -8.08114e-019
RightArm  -3.85989 40.8289 66.8083
RightForeArm  -87.0037 46.389 -154.268
RightHand  3.98189 -16.2472 -26.05
LeftUpLeg  -76.379 -1.73008 -9.59469
LeftLeg  113.374 -7.96798 -13.0259
LeftFoot  -13.0894 -0.0188438 -9.49428
LeftToes  -3.29237e-010 -4.9359e-011 -7.59376e-011
209
root  63.8258 17.6339 4.03605 116.7 71.4727 142.549
RightUpLeg  -51.2486 -3.30653 -5.18126
RightLeg  132.453 21.9628 -9.82518
RightFoot  -35.9031 2.09541 10.321
RightToes  2.85217e-009 -3.18055e-015 8.94531e-016
Spine  63.6634 -1.25746 -3.79469
Spine1  10.4843 -2.53212 -5.08268
HEad  -26.9609 -3.23922 7.53083
LeftShoulder1  0 -2.69403e-036 -1.28585e-037
LeftArm  -10.3572 -53.2617 -61.4145
LeftForeArm  -134.396 -50.8485 167.753
LeftHand  0.172868 4.46213 15.9808
RightShoulder  -2.48481e-017 0 -8.08114e-019
RightArm  -3.39943 40.6172 67.2912
RightForeArm  -86.78 46.4488 -154.173
RightHand  3.91915 -16.1105 -25.8893
LeftUpLeg  -77.844 -2.63137 -13.2627
LeftLeg  107.551 -10.5097 -9.08715
LeftFoot  -15.7142 -0.236705 -9.47524
LeftToes  -3.29237e-010 -4.9359e-011 -7.59376e-011
210
root  64.4288 16.8827 3.85926 112.61 71.3082 139.508
RightUpLeg  -50.6213 -4.00268 -5.68906
RightLeg  135.961 23.42 -9.83527
RightFoot  -35.7353 2.29133 11.3708
RightToes  2.85217e-009 -3.18055e-015 8.94531e-016
Spine  63.9829 -0.587551 -4.7301
Spine1  11.0734 -2.26011 -5.53456
HEad  -26.9373 -2.66903 7.29015
LeftShoulder1  0 -2.69403e-036 -1.28585e-037
LeftArm  -10.5996 -53.2296 -61.7289
LeftForeArm  -133.947 -50.9055 167.674
LeftHand  0.142873 4.35084 15.9208
RightShoulder  -2.48481e-017 0 -8.08114e-019
RightArm  -3.1042 40.4931 67.5973
RightForeArm  -86.3801 46.5407 -154.024
RightHand  3.84033 -15.9358 -25.6922
LeftUpLeg  -77.615 -3.4974 -14.9711
LeftLeg  102.554 -12.1953 -4.58453
LeftFoot  -15.83 -0.227073 -8.45021
LeftToes  -3.29237e-010 -4.9359e-011 -7.59376e-011
211
root  65.0865 16.156 3.59588 106.168 72.6033 133.24
RightUpLeg  -50.7325 -3.67354 -4.88611
RightLeg  139.431 24.9254 -9.72366
RightFoot  -35.7197 2.42549 12.0436
RightToes  2.85217e-009 -3.18055e-015 8.94531e-016
Spine  63.2438 0.267909 -5.16402
Spine1  12.4717 -1.19714 -6.46691
HEad  -27.084 -2.01337 6.7015
LeftShoulder1  0 -2.69403e-036 -1.28585e-037
LeftArm  -10.9849 -53.2213 -62.109
LeftForeArm  -133.451 -50.8957 167.644
LeftHand  0.0898667 4.16576 15.9573
RightShoulder  -2.48481e-017 0 -8.08114e-019
RightArm  -2.76239 40.4735 67.7822
RightForeArm  -86.1647 46.6237 -153.897
RightHand  3.7784 -15.854 -25.3275
LeftUpLeg  -78.2888 -3.34162 -14.4114
LeftLeg  100.384 -13.4838 0.7257
LeftFoot  -12.7892 -0.011291 -6.57708
LeftToes  -3.29237e-010 -4.9359e-011 -7.59376e-011
212
root  65.8214 15.4833 3.22419 98.7463 74.4983 125.876
RightUpLeg  -49.9154 -3.1313 -4.10939
RightLeg  143.057 25.5388 -8.8308
RightFoot  -36.7208 2.63406 12.5036
RightToes  2.85217e-009 -3.18055e-015 8.94531e-016
Spine  62.5327 0.552838 -4.75223
Spine1  13.8164 -0.139586 -7.84385
HEad  -27.0369 -1.24659 5.82746
LeftShoulder1  0 -2.69403e-036 -1.28585e-037
LeftArm  -11.4879 -53.0451 -62.348
LeftForeArm  -133.481 -50.6688 167.825
LeftHand  0.075536 4.10442 15.8561
RightShoulder  -2.48481e-017 0 -8.08114e-019
RightArm  -2.18373 40.417 68.0447
RightForeArm  -85.9274 46.6868 -153.796
RightHand  3.69275 -15.7205 -24.8812
LeftUpLeg  -79.9049 -2.68068 -12.9388
LeftLeg  101.907 -14.4406 4.17522
LeftFoot  -9.07657 0.187871 -5.57714
LeftToes  -3.29237e-010 -4.9359e-011 -7.59376e-011
213
root  66.5978 14.9166 2.77632 95.3195 76.0265 123.105
RightUpLeg  -46.6437 -3.70532 -5.04212
RightLeg  146.479 24.4984 -7.02711
RightFoot  -38.6003 2.90593 12.7519
RightToes  2.85217e-009 -3.18055e-015 8.94531e-016
Spine  62.979 -0.311811 -3.59606
Spine1  14.3814 -0.167003 -8.9647
HEad  -27.0583 -0.437723 4.7502
LeftShoulder1  0 -2.69403e-036 -1.28585e-037
LeftArm  -12.1559 -52.7957 -62.281
LeftForeArm  -133.686 -50.3551 168.084
LeftHand  0.0903025 4.16119 15.8954
RightShoulder  -2.48481e-017 0 -8.08114e-019
RightArm  -1.67468 40.5878 68.3244
RightForeArm  -85.0683 46.8266 -153.55
RightHand  3.55867 -15.3313 -24.8427
LeftUpLeg  -81.1411 -3.20019 -11.8412
LeftLeg  105.362 -15.1286 5.08694
LeftFoot  -6.85342 0.290934 -5.42017
LeftToes  -3.29237e-010 -4.9359e-011 -7.59376e-011
